<?xml version="1.0" standalone="no"?>
<!DOCTYPE svg PUBLIC "-//W3C//DTD SVG 20010904//EN"
 "http://www.w3.org/TR/2001/REC-SVG-20010904/DTD/svg10.dtd">
<svg version="1.0" xmlns="http://www.w3.org/2000/svg"
 width="512pt" height="512pt" viewBox="261 201 459 570"
 preserveAspectRatio="xMidYMid meet">

<g transform="translate(0.000000,1024.000000) scale(0.100000,-0.100000)"
fill="#000000" stroke="none">
<path d="M3579 8198 l-145 -40 -12 -177 c-33 -489 -46 -644 -54 -608 -6 29
-58 682 -58 728 0 7 -10 9 -27 4 -25 -6 -403 -154 -411 -160 -2 -2 4 -115 12
-251 8 -137 20 -346 26 -464 5 -118 12 -249 15 -290 l5 -75 -50 127 c-78 199
-126 407 -150 653 -6 66 -14 137 -18 158 l-7 37 -50 -33 -50 -33 1 -64 c1 -36
7 -150 13 -255 11 -188 31 -681 71 -1710 11 -291 25 -631 30 -755 5 -124 12
-288 15 -365 9 -225 16 -308 30 -335 7 -14 34 -49 59 -78 33 -39 46 -48 46
-35 0 23 70 647 106 938 14 116 28 234 31 263 3 29 9 54 12 57 4 2 12 -53 19
-123 6 -70 18 -190 26 -267 28 -261 46 -459 76 -860 34 -452 57 -690 69 -721
9 -20 229 -159 238 -150 3 3 7 33 9 68 3 35 14 191 24 348 11 157 20 294 20
304 0 23 9 16 14 -10 2 -11 29 -190 61 -399 31 -209 59 -386 61 -393 4 -13 21
-22 272 -136 102 -46 142 -60 137 -48 -36 93 -195 1072 -195 1202 0 23 6 29
43 39 138 41 218 127 247 265 l12 58 35 -33 c19 -19 121 -135 226 -258 257
-301 357 -416 365 -418 4 -2 17 12 30 30 52 74 39 76 145 -26 54 -50 97 -95
97 -100 0 -4 -40 -60 -88 -125 -287 -382 -464 -692 -557 -977 -14 -43 -23 -80
-21 -83 7 -7 163 98 236 158 36 30 103 93 149 140 l83 85 -25 -50 c-14 -27
-75 -144 -136 -259 -61 -115 -111 -211 -111 -212 0 -14 159 78 245 141 99 73
185 155 257 244 33 41 58 66 54 53 -12 -36 -46 -236 -41 -240 2 -3 64 56 138
129 140 141 284 314 412 497 l77 109 51 -55 c56 -60 227 -212 238 -212 4 0
-29 105 -72 232 -44 128 -82 242 -86 253 -3 11 21 -9 53 -45 144 -159 303
-289 520 -422 85 -53 248 -139 299 -158 l23 -9 -24 56 c-34 75 -79 254 -99
388 -28 188 -29 343 -5 775 41 742 14 1106 -105 1425 -43 114 -80 191 -131
270 l-35 56 46 53 c133 156 222 379 260 648 14 100 18 112 43 131 54 40 190
184 245 258 57 78 127 197 127 216 0 8 -17 7 -52 -2 -29 -7 -84 -16 -123 -20
l-70 -6 55 36 c88 58 325 303 309 319 -2 2 -40 -3 -84 -12 -130 -26 -573 -22
-835 7 -588 65 -942 23 -1247 -150 -97 -55 -247 -197 -313 -296 -74 -110 -95
-188 -94 -345 l0 -126 -160 -100 c-89 -55 -263 -161 -388 -235 -125 -75 -289
-175 -365 -224 -134 -85 -137 -88 -103 -91 97 -10 725 61 1150 129 l195 32 97
-19 c54 -10 94 -21 90 -25 -4 -4 -25 -12 -47 -19 -76 -24 -208 -90 -292 -146
-258 -171 -404 -402 -449 -706 -26 -174 -8 -379 45 -532 12 -33 19 -61 17 -64
-6 -5 -76 58 -192 171 l-91 89 9 42 c6 22 8 78 5 124 -11 195 -140 326 -344
351 -34 4 -65 10 -68 12 -2 3 -16 106 -30 230 -14 123 -27 231 -28 239 -2 8
-49 -77 -105 -189 -56 -112 -104 -206 -106 -208 -2 -2 -2 48 0 112 2 63 1 115
-2 115 -3 0 -42 -36 -87 -79 -45 -44 -83 -78 -85 -76 -2 2 5 20 16 42 31 63
146 352 141 356 -2 2 -80 0 -174 -4 -93 -4 -171 -6 -172 -5 -2 2 195 138 269
187 5 3 -20 53 -56 111 -58 95 -116 201 -116 212 0 4 138 -77 179 -106 14 -10
27 -16 29 -14 2 2 -8 48 -23 103 -30 112 -85 356 -81 360 2 2 41 -62 87 -142
87 -150 248 -389 257 -381 4 5 11 125 32 551 9 199 46 902 66 1243 3 61 2 111
-3 111 -4 -1 -74 -19 -154 -41z m2099 -1153 c168 -27 340 -114 421 -212 138
-166 117 -374 -60 -603 -61 -80 -157 -170 -238 -224 -38 -26 -63 -34 -117 -40
-108 -10 -232 -45 -319 -88 -61 -31 -99 -60 -161 -123 -97 -97 -143 -184 -170
-315 -51 -257 47 -626 251 -935 53 -81 68 -127 124 -382 11 -53 7 -54 -82 -8
-173 89 -296 212 -396 395 -21 40 -41 68 -44 63 -5 -8 -40 -145 -61 -237 -7
-28 -7 -28 -28 -10 -88 80 -204 312 -250 503 -29 122 -36 363 -14 489 19 109
68 246 117 327 72 120 200 236 334 302 87 44 168 68 370 112 99 21 219 53 266
70 198 73 387 230 467 390 23 46 42 90 42 97 0 9 -31 -7 -79 -41 -202 -141
-441 -205 -693 -183 -203 17 -406 92 -511 188 l-49 45 58 85 c110 159 228 253
384 305 137 46 281 55 438 30z m-964 -530 c16 -31 27 -57 25 -59 -14 -13 -709
-250 -715 -244 -4 5 637 355 651 357 6 0 23 -24 39 -54z m1011 -750 c102 -20
119 -35 39 -35 -68 0 -156 -21 -214 -50 -22 -11 -72 -50 -111 -87 -118 -112
-178 -270 -180 -475 0 -104 -8 -98 -35 29 -23 109 -21 270 4 350 46 147 141
241 277 274 51 12 136 10 220 -6z m-1898 -480 c21 -9 46 -23 56 -33 25 -22 57
-96 57 -130 l0 -26 -27 27 c-16 14 -55 38 -88 54 -50 23 -74 28 -140 28 -44 0
-102 -3 -128 -7 -58 -9 -55 1 11 39 102 60 191 76 259 48z m-3 -325 c66 -71
98 -146 104 -241 6 -102 -11 -172 -54 -219 -46 -51 -81 -64 -149 -55 -30 3
-57 11 -61 16 -5 9 110 69 135 69 11 0 12 11 7 53 -3 28 -13 120 -21 202 -8
83 -17 167 -19 188 -2 20 -1 37 4 37 4 0 28 -23 54 -50z m2053 -418 c60 -78
201 -215 253 -246 l33 -19 -6 44 c-3 24 -9 69 -13 99 l-6 55 63 -61 c35 -33
101 -89 147 -124 l82 -63 0 -144 0 -143 -88 44 c-108 54 -279 168 -352 233
-48 43 -53 45 -48 23 3 -14 26 -114 53 -223 26 -109 45 -200 43 -202 -8 -8
-131 110 -221 213 -165 188 -319 411 -377 546 -28 65 -26 66 16 10 56 -75 172
-191 239 -239 60 -42 144 -89 150 -83 2 2 -8 48 -21 103 -32 130 -94 397 -94
404 0 3 21 -30 46 -74 25 -44 70 -113 101 -153z m-578 -714 l58 -123 -94 -189
c-52 -103 -96 -187 -97 -185 -5 6 11 147 39 358 14 101 25 201 25 222 0 22 2
39 6 39 3 0 31 -55 63 -122z"/>
<path d="M5074 6861 c-143 -66 -103 -273 53 -273 108 0 180 127 123 219 -39
64 -108 86 -176 54z"/>
<path d="M3902 6827 c-90 -264 -113 -337 -107 -337 12 0 67 71 167 215 61 88
132 188 156 223 l44 62 -85 40 c-47 22 -87 40 -88 40 -2 0 -41 -109 -87 -243z"/>
<path d="M4110 6624 c-92 -92 -127 -134 -110 -129 24 7 183 71 282 114 l47 20
-37 65 c-20 36 -39 66 -42 66 -3 0 -66 -61 -140 -136z"/>
<path d="M3900 5956 c0 -2 55 -48 123 -102 193 -155 208 -166 211 -163 11 15
76 126 76 131 0 3 -8 8 -17 11 -10 3 -99 33 -197 66 -173 59 -196 66 -196 57z"/>
<path d="M3820 5866 c0 -11 72 -171 101 -226 l33 -61 51 51 50 51 -45 41 c-63
57 -176 148 -184 148 -3 0 -6 -2 -6 -4z"/>
</g>
</svg>
